<?xml version="1.0" encoding="UTF-8"?><svg id="Layer_1" xmlns="http://www.w3.org/2000/svg" xmlns:xlink="http://www.w3.org/1999/xlink" viewBox="0 0 227.91 227.91"><defs><style>.cls-1{fill:url(#linear-gradient);}.cls-1,.cls-2,.cls-3,.cls-4,.cls-5,.cls-6,.cls-7{stroke-width:0px;}.cls-2{fill:#f47a20;}.cls-3{fill:#ddd;}.cls-4{fill:#94989b;}.cls-5{fill:#3f4347;}.cls-6{fill:#e8e8e8;}.cls-7{fill:#f2f1f0;}</style><linearGradient id="linear-gradient" x1="7.2" y1="113.96" x2="220.71" y2="113.96" gradientUnits="userSpaceOnUse"><stop offset="0" stop-color="#f78f49"/><stop offset=".05" stop-color="#f68b42"/><stop offset=".11" stop-color="#f5822f"/><stop offset=".16" stop-color="#f47a20"/><stop offset=".18" stop-color="#f17720"/><stop offset=".32" stop-color="#e56d24"/><stop offset=".52" stop-color="#dd6726"/><stop offset="1" stop-color="#dc6627"/></linearGradient></defs><polygon class="cls-2" points="138.21 51.79 138.21 51.79 138.21 51.79 138.21 51.79"/><rect class="cls-1" x="7.2" y="9.7" width="213.51" height="208.52" rx="56.24" ry="56.24"/><path class="cls-6" d="M100.77,142.39c-.45.45-.45,1.17,0,1.62l22.26,22.25c.45.44,1.18.44,1.62,0l1.62-1.62c.45-.45.45-1.18,0-1.62l-22.26-22.25c-.44-.45-1.17-.45-1.62,0l-1.62,1.62Z"/><path class="cls-5" d="M112.22,142.9c.45.45.45,1.19,0,1.64l-7.68,7.67c-.45.45-1.19.45-1.64,0l-3.5-3.49c-.45-.45-.45-1.19,0-1.64l7.67-7.67c.45-.45,1.19-.45,1.64,0l3.49,3.49Z"/><polygon class="cls-5" points="119.5 153.05 116.7 150.34 119.48 147.64 122.28 150.35 119.5 153.05"/><path class="cls-4" d="M127.68,147.19l-4.93-4.78c-.18-.18-.47-.18-.65,0l-1.84,1.78-.02.02-1.84,1.78c-.18.18-.18.46,0,.63l4.94,4.78c.18.17.47.17.65,0l3.69-3.58c.18-.18.18-.46,0-.63Z"/><path class="cls-4" d="M119.45,139.2c-.18-.18-.47-.18-.65,0l-3.69,3.58c-.18.17-.18.46,0,.63,0,0,1.03.99,1.06,1.01l4.33-4.2s-1.04-1.02-1.04-1.02Z"/><path class="cls-5" d="M120.26,144.18l1.84-1.78s-1.02.58-1.21-.95c-.07-.62-.21-1-.4-1.23l-4.33,4.2c.23.18.63.31,1.26.38,1.59.18.98,1.17.98,1.17l1.84-1.78.02-.02Z"/><path class="cls-5" d="M128.06,158.28c5-4.88-.57-10.27-.57-10.27l-3.28,3.18s4.11,3.05,2.97,6.91c-.13.45-.36.85-.24.96.16.15.77-.43,1.12-.78Z"/><path class="cls-3" d="M118.1,151.69l-1.81-1.75s-1.46.91-3.06,2.46c-1.77,1.71-2.76,3.98-5.09,6.24-3.51,3.4-5.22,4.17-6.63,5.2-.53.39-.48.45,0,.92l1.52,1.48,15.07-14.54Z"/><path class="cls-7" d="M118.1,151.69l1.81,1.75s-.93,1.41-2.54,2.96c-1.77,1.71-4.1,2.67-6.44,4.93-3.51,3.4-4.37,4.99-5.43,6.37-.4.52-.46.47-.95,0l-1.52-1.47,15.07-14.54Z"/><polygon class="cls-3" points="129.04 33.75 120.45 118.39 182.68 193.77 129.04 33.75"/><polygon class="cls-7" points="48.13 193.8 109.7 118.62 100.27 34.07 48.13 193.8"/><rect class="cls-7" x="96.42" y="115.65" width="36.37" height="8.66"/><polygon class="cls-3" points="120.72 115.65 120.45 118.39 125.34 124.32 132.79 124.32 132.79 115.65 120.72 115.65"/></svg>